<svg id="Layer_1" data-name="Layer 1" xmlns="http://www.w3.org/2000/svg" viewBox="0 0 271.12 229.07"><defs><style>.cls-1{fill:#fff;}</style></defs><path class="cls-1" d="M230.45,35.47H69.55A55.11,55.11,0,0,0,14.44,90.58h0v88.89A55.13,55.13,0,0,0,56,232.91L68.2,254a21,21,0,0,0,36.47,0l11.21-19.42H230.45a55.11,55.11,0,0,0,55.11-55.11h0V90.58a55.11,55.11,0,0,0-55.11-55.11ZM63,131.92A23.09,23.09,0,1,1,86.1,155H86A23.1,23.1,0,0,1,63,131.92Zm64.64,0A23.09,23.09,0,1,1,150.74,155h-.06a23.09,23.09,0,0,1-23.09-23.08ZM214.49,155a23.09,23.09,0,1,1,23.08-23.1v0A23.08,23.08,0,0,1,214.49,155Z" transform="translate(-14.44 -35.47)"/></svg>