<svg id="Layer_1" data-name="Layer 1" xmlns="http://www.w3.org/2000/svg" viewBox="0 0 136.3 159.38"><defs><style>.cls-1{fill:#fff;}</style></defs><path class="cls-1" d="M150,229.7a19.26,19.26,0,0,0,19.26-19.26H130.74A19.26,19.26,0,0,0,150,229.7Z" transform="translate(-81.85 -70.32)"/><path class="cls-1" d="M201.51,144.69h0a12.14,12.14,0,0,1-6.17-11.84c.43-1.32.8-2.66,1.12-4A48.35,48.35,0,0,0,197.7,118a47.7,47.7,0,1,0-94.15,10.87q.47,2,1.08,3.87a12.13,12.13,0,0,1-6.14,11.95A32.4,32.4,0,0,0,81.85,173h0a32.43,32.43,0,0,0,32.43,32.43h71.44A32.43,32.43,0,0,0,218.15,173h0A32.4,32.4,0,0,0,201.51,144.69Z" transform="translate(-81.85 -70.32)"/></svg>