<svg id="Layer_1" data-name="Layer 1" xmlns="http://www.w3.org/2000/svg" viewBox="0 0 1012.56 305.78"><defs><style>.cls-1{fill:#0086ff;}.cls-2{fill:#fff;}</style></defs><rect class="cls-1" x="52.33" y="34.67" width="902.26" height="240" rx="120"/><path class="cls-2" d="M134.8,197.68h-16V98.21h16Z"/><path class="cls-2" d="M199.76,197.68,160.9,127.93v69.75H145V98.21h18.71L202.52,168V98.21h15.95v99.47Z"/><path class="cls-2" d="M267.34,199.28a39.15,39.15,0,0,1-12-1.82,41.32,41.32,0,0,1-10.51-5.07,48.39,48.39,0,0,1-8.92-7.76,64.05,64.05,0,0,1-7.25-9.71l13.48-8.41a44.2,44.2,0,0,0,10.45,11.89,23.14,23.14,0,0,0,14.79,4.93,26.13,26.13,0,0,0,5.8-.66,15.63,15.63,0,0,0,5.14-2.1,11.22,11.22,0,0,0,5.15-9.86,11.3,11.3,0,0,0-3.77-8.77,36.81,36.81,0,0,0-9.5-6,131.24,131.24,0,0,0-12.39-4.86,73.74,73.74,0,0,1-12.4-5.43,33.44,33.44,0,0,1-9.5-7.69q-3.78-4.5-3.77-11.6a25.26,25.26,0,0,1,2.83-12.11,26.88,26.88,0,0,1,7.47-8.84A33.12,33.12,0,0,1,253,100a41.45,41.45,0,0,1,12.18-1.81A31.61,31.61,0,0,1,275.89,100a35.81,35.81,0,0,1,9.35,5,40.62,40.62,0,0,1,7.69,7.54,43.66,43.66,0,0,1,5.58,9.28l-14.64,6.38a23.66,23.66,0,0,0-7.69-10.07,18.84,18.84,0,0,0-11.74-4,20.42,20.42,0,0,0-5.3.72,16.43,16.43,0,0,0-4.85,2.18,11.09,11.09,0,0,0-3.48,3.7,10.35,10.35,0,0,0-1.31,5.29c0,1.84,1.26,3.43,3.77,4.79a81.49,81.49,0,0,0,9.5,4.2q5.73,2.18,12.4,4.86a60.73,60.73,0,0,1,12.39,6.74,35.78,35.78,0,0,1,9.5,9.93,26,26,0,0,1,3.77,14.29,25.12,25.12,0,0,1-2.9,12.25,28.68,28.68,0,0,1-7.54,8.92,32,32,0,0,1-10.73,5.43A43,43,0,0,1,267.34,199.28Z"/><path class="cls-2" d="M376.67,181.73v16H311V98.21h64.09v16H326.93v24.07h36v16h-36v27.55Z"/><path class="cls-2" d="M419.44,161.72H402.77v36H386.82V98.21h33.35A36.07,36.07,0,0,1,433,100.53a34.6,34.6,0,0,1,10.95,6.6,32.42,32.42,0,0,1,7.61,10.07A28.68,28.68,0,0,1,454.39,130a29.57,29.57,0,0,1-1.38,9,31.68,31.68,0,0,1-3.84,8,30.79,30.79,0,0,1-5.95,6.6,33,33,0,0,1-7.68,4.79l19,39.29H436.84Zm-16.67-15.95h17.4a18.72,18.72,0,0,0,6.38-1.09,15.53,15.53,0,0,0,5.36-3.19,15.85,15.85,0,0,0,3.7-5,16.12,16.12,0,0,0,0-13.05,15.85,15.85,0,0,0-3.7-5,15.69,15.69,0,0,0-5.36-3.19,18.72,18.72,0,0,0-6.38-1.09h-17.4Z"/><path class="cls-2" d="M526,112.71H498.18v85H482.23v-85h-28V98.21H526Z"/><path class="cls-2" d="M632.89,197.68H572.42V98.21h16v83.52h44.52Z"/><path class="cls-2" d="M681.9,199.28q-11.61,0-19.07-4.28a33.36,33.36,0,0,1-11.89-11.31,46.34,46.34,0,0,1-6.16-16.17,99.7,99.7,0,0,1-1.74-18.7,94.79,94.79,0,0,1,1.81-18.64,47.39,47.39,0,0,1,6.23-16.09A34,34,0,0,1,663,102.7q7.47-4.35,18.93-4.35t18.92,4.35a34,34,0,0,1,11.89,11.39,46.3,46.3,0,0,1,6.16,16.09,100.66,100.66,0,0,1,0,37.27,48.05,48.05,0,0,1-6.09,16.17A32.42,32.42,0,0,1,700.89,195Q693.36,199.27,681.9,199.28Zm0-85q-7.54,0-11.82,3.19a20,20,0,0,0-6.45,8.2A34.74,34.74,0,0,0,661,136.85q-.51,6.17-.51,12t.51,12a36,36,0,0,0,2.6,11.09,19.44,19.44,0,0,0,6.39,8.2q4.27,3.18,12,3.19,7.53,0,11.81-3.19a19.44,19.44,0,0,0,6.39-8.2,36.28,36.28,0,0,0,2.61-11.09q.49-6.09.5-12t-.5-12a36.38,36.38,0,0,0-2.61-11.16,19.44,19.44,0,0,0-6.39-8.2Q689.44,114.31,681.9,114.3Z"/><path class="cls-2" d="M803.85,197.68h-16v-4.06a37.74,37.74,0,0,1-8.7,4.13,30.43,30.43,0,0,1-9.57,1.53q-11.61,0-19.07-4.35a33.93,33.93,0,0,1-11.89-11.39,46.22,46.22,0,0,1-6.17-16.16,99.8,99.8,0,0,1-1.74-18.71A94.62,94.62,0,0,1,732.58,130a47.24,47.24,0,0,1,6.23-16.1,34,34,0,0,1,11.89-11.38q7.47-4.35,18.93-4.35a31.89,31.89,0,0,1,12.17,2.25,30.8,30.8,0,0,1,9.65,6.16,32.79,32.79,0,0,1,6.81,9.35,45.07,45.07,0,0,1,3.85,11.67l-14.36,2.76a20.28,20.28,0,0,0-6-11.6,16.77,16.77,0,0,0-12.17-4.64q-7.54,0-11.82,3.19a20,20,0,0,0-6.46,8.19,35.14,35.14,0,0,0-2.68,11.17q-.51,6.16-.51,12,0,6,.51,12.11a36.38,36.38,0,0,0,2.61,11.16,19.42,19.42,0,0,0,6.38,8.2q4.27,3.18,12,3.19a15.28,15.28,0,0,0,6.08-1.38,23.91,23.91,0,0,0,5.95-3.7,20.54,20.54,0,0,0,4.5-5.22,11.39,11.39,0,0,0,1.74-5.94v-3.63H768v-16h35.82Z"/><path class="cls-2" d="M852.86,199.28q-11.61,0-19.07-4.28a33.28,33.28,0,0,1-11.89-11.31,46.35,46.35,0,0,1-6.17-16.17,99.7,99.7,0,0,1-1.74-18.7,94.79,94.79,0,0,1,1.82-18.64A47.18,47.18,0,0,1,822,114.09a34,34,0,0,1,11.89-11.39q7.47-4.35,18.93-4.35t18.92,4.35a34,34,0,0,1,11.89,11.39,46.3,46.3,0,0,1,6.16,16.09,100.66,100.66,0,0,1,0,37.27,48.05,48.05,0,0,1-6.09,16.17A32.42,32.42,0,0,1,871.85,195Q864.31,199.27,852.86,199.28Zm0-85q-7.54,0-11.82,3.19a20,20,0,0,0-6.46,8.2,35,35,0,0,0-2.68,11.16q-.51,6.17-.51,12t.51,12a36.28,36.28,0,0,0,2.61,11.09,19.42,19.42,0,0,0,6.38,8.2q4.27,3.18,12,3.19,7.53,0,11.81-3.19a19.42,19.42,0,0,0,6.38-8.2,36.28,36.28,0,0,0,2.61-11.09q.51-6.09.51-12t-.51-12a36.38,36.38,0,0,0-2.61-11.16,19.42,19.42,0,0,0-6.38-8.2Q860.4,114.31,852.86,114.3Z"/></svg>