<svg id="Layer_1" data-name="Layer 1" xmlns="http://www.w3.org/2000/svg" viewBox="0 0 300 300"><defs><style>.cls-1{fill:#0086ff;}.cls-2{fill:#fff;}</style></defs><circle class="cls-1" cx="150" cy="150" r="129.33"/><path class="cls-2" d="M153,197a39.45,39.45,0,0,1-12-1.81,41.35,41.35,0,0,1-10.51-5.08,48,48,0,0,1-8.92-7.76,65.41,65.41,0,0,1-7.25-9.71l13.49-8.41a44,44,0,0,0,10.44,11.89A23.08,23.08,0,0,0,153,181.07a26.72,26.72,0,0,0,5.8-.65,15.91,15.91,0,0,0,5.15-2.11,11.24,11.24,0,0,0,5.14-9.86,11.27,11.27,0,0,0-3.77-8.77,36.91,36.91,0,0,0-9.49-6,131.47,131.47,0,0,0-12.4-4.86,73.74,73.74,0,0,1-12.4-5.43,33.58,33.58,0,0,1-9.5-7.69q-3.77-4.49-3.77-11.6A25.38,25.38,0,0,1,120.54,112a27.1,27.1,0,0,1,7.47-8.84,33.12,33.12,0,0,1,10.58-5.37A41.88,41.88,0,0,1,150.77,96a31.85,31.85,0,0,1,10.73,1.81,35.6,35.6,0,0,1,9.36,5,40.28,40.28,0,0,1,7.68,7.54,43.42,43.42,0,0,1,5.58,9.28L169.48,126a23.69,23.69,0,0,0-7.69-10.08,18.84,18.84,0,0,0-11.74-4,19.89,19.89,0,0,0-5.29.73,16.47,16.47,0,0,0-4.86,2.17,11.09,11.09,0,0,0-3.48,3.7,10.35,10.35,0,0,0-1.31,5.29c0,1.84,1.26,3.43,3.77,4.79a82.26,82.26,0,0,0,9.5,4.2q5.73,2.17,12.4,4.86a60.8,60.8,0,0,1,12.4,6.74,35.88,35.88,0,0,1,9.49,9.93,25.87,25.87,0,0,1,3.78,14.29,25,25,0,0,1-2.91,12.25,28.54,28.54,0,0,1-7.54,8.92,32.06,32.06,0,0,1-10.73,5.44A43.28,43.28,0,0,1,153,197Z"/></svg>