<svg id="Layer_1" data-name="Layer 1" xmlns="http://www.w3.org/2000/svg" viewBox="0 0 227.12 227.09"><defs><style>.cls-1{fill:#fff;}</style></defs><path class="cls-1" d="M243.89,117.62a96.22,96.22,0,0,0-9.4-22.89,26.67,26.67,0,0,0-36.44-36.45A97,97,0,0,0,175.6,49a26.67,26.67,0,0,0-51.2,0A96.66,96.66,0,0,0,102,58.28,26.67,26.67,0,0,0,65.51,94.73a96.22,96.22,0,0,0-9.4,22.89,26.67,26.67,0,0,0,.33,51.54,96.63,96.63,0,0,0,9.07,21.66A26.67,26.67,0,0,0,102,227.27a97,97,0,0,0,22.13,9.19,26.66,26.66,0,0,0,51.84,0,97,97,0,0,0,22.13-9.19,26.67,26.67,0,0,0,36.44-36.45,96.63,96.63,0,0,0,9.07-21.66,26.67,26.67,0,0,0,.33-51.54ZM150,208.68a65.34,65.34,0,1,1,65.33-65.35h0A65.35,65.35,0,0,1,150,208.68Z" transform="translate(-36.47 -29.8)"/></svg>