<svg id="Layer_1" data-name="Layer 1" xmlns="http://www.w3.org/2000/svg" viewBox="0 0 250.93 215"><defs><style>.cls-1{fill:#fff;}</style></defs><path class="cls-1" d="M-784.5-249H-850a42,42,0,0,0-42,42v10a10,10,0,0,0,10,10h0a10,10,0,0,0,10-10v-10a22,22,0,0,1,22-22h65.5a22,22,0,0,1,22,22V-76a22,22,0,0,1-22,22H-850a22,22,0,0,1-22-22v-.06a10,10,0,0,0-10-10h0a10,10,0,0,0-10,10V-76a42,42,0,0,0,42,42h65.5a42,42,0,0,0,42-42V-207A42,42,0,0,0-784.5-249Z" transform="translate(993.43 249)"/><path class="cls-1" d="M-910.32-103.17-942.64-129H-813.5A12.5,12.5,0,0,0-801-141.5h0A12.5,12.5,0,0,0-813.5-154H-942.42l32.1-25.66a10.37,10.37,0,0,0,4.08-8.32,9.88,9.88,0,0,0-4.53-8.49,16.91,16.91,0,0,0-9.94-3.19A15.51,15.51,0,0,0-931-196.17l-58.25,46.56a10.08,10.08,0,0,0-4.18,8.2,10.06,10.06,0,0,0,4.18,8.19L-931-86.65a16.05,16.05,0,0,0,10.29,3.31,17,17,0,0,0,9.94-3.16,9.78,9.78,0,0,0,4.53-8.42A10.25,10.25,0,0,0-910.32-103.17Z" transform="translate(993.43 249)"/></svg>