<svg id="Layer_1" data-name="Layer 1" xmlns="http://www.w3.org/2000/svg" viewBox="0 0 1012.56 305.78"><defs><style>.cls-1{fill:#8a9bff;}</style></defs><path class="cls-1" d="M417,129.79a11.18,11.18,0,1,0,0-22.35h-7.23V81.8a11.18,11.18,0,1,0-22.35,0V183.05a38.52,38.52,0,0,0,26.17,36.88,11.17,11.17,0,0,0,3.46.55,11.23,11.23,0,0,0,3.62-21.82,15.48,15.48,0,0,1-10.9-15.61V129.79Z"/><path class="cls-1" d="M549.57,107.44a11.18,11.18,0,0,0-11.17,11.18v27.61a16.19,16.19,0,0,1-14.47,16.34V118.62a11.18,11.18,0,1,0-22.35,0v64.43a16,16,0,0,1-4.85,11.8,16.17,16.17,0,0,1-11.59,4.64,15.76,15.76,0,0,1-16.44-16.44V118.62a11.18,11.18,0,1,0-22.35,0v64.43a38.79,38.79,0,0,0,66,27.59A37,37,0,0,0,523.89,185a38.82,38.82,0,0,0,36.86-38.75V118.62A11.19,11.19,0,0,0,549.57,107.44Z"/><path class="cls-1" d="M645,173.81A38.43,38.43,0,0,0,645,119a38.43,38.43,0,0,0-54.87,0,37.26,37.26,0,0,0-11.22,27.28v36.82a38.32,38.32,0,0,0,38.79,38.79H645.3a11.18,11.18,0,1,0,0-22.35H617.69a16.44,16.44,0,0,1-11.8-4.56,16.25,16.25,0,0,1-4.55-9.91h16.35A37.29,37.29,0,0,0,645,173.81ZM629.28,158a16.17,16.17,0,0,1-11.59,4.64H601.25V146.23a16.2,16.2,0,0,1,16.44-16.44,16.7,16.7,0,0,1,16.44,16.44A16,16,0,0,1,629.28,158Z"/><path class="cls-1" d="M740.69,173.81a38.43,38.43,0,0,0,0-54.84,38.43,38.43,0,0,0-54.87,0,37.3,37.3,0,0,0-11.22,27.28v36.82a38.32,38.32,0,0,0,38.79,38.79H741a11.18,11.18,0,0,0,0-22.35H713.42a16.44,16.44,0,0,1-11.8-4.56,16.24,16.24,0,0,1-4.54-9.91h16.34A37.29,37.29,0,0,0,740.69,173.81Zm-10.83-27.58A16,16,0,0,1,725,158a16.17,16.17,0,0,1-11.59,4.64H697V146.23a16.2,16.2,0,0,1,16.44-16.44,16.7,16.7,0,0,1,16.44,16.44Z"/><path class="cls-1" d="M800,129.79a11.18,11.18,0,0,0,0-22.35h-7.24V81.8a11.18,11.18,0,1,0-22.35,0V183.05a38.52,38.52,0,0,0,26.17,36.88,11.22,11.22,0,0,0,3.46.55,11.23,11.23,0,0,0,3.63-21.82,15.5,15.5,0,0,1-10.91-15.61V129.79Z"/><path class="cls-1" d="M895.34,173.81a37.15,37.15,0,0,0,11.51-27.58,39.31,39.31,0,0,0-38.79-38.79,38.8,38.8,0,0,0-38.79,38.79v36.82a38.32,38.32,0,0,0,38.79,38.79h27.62a11.18,11.18,0,0,0,0-22.35H868.06a16.46,16.46,0,0,1-11.8-4.56,16.24,16.24,0,0,1-4.54-9.91h16.34A37.31,37.31,0,0,0,895.34,173.81ZM879.65,158a16.14,16.14,0,0,1-11.59,4.64H851.63V146.23a16.19,16.19,0,0,1,16.43-16.44,16.7,16.7,0,0,1,16.44,16.44A16,16,0,0,1,879.65,158Z"/><path class="cls-1" d="M973,107.44h-9.21A38.8,38.8,0,0,0,925,146.23v64.44a11.18,11.18,0,0,0,22.36,0V146.23a16.2,16.2,0,0,1,16.43-16.44H973a11.18,11.18,0,1,0,0-22.35Z"/><path class="cls-1" d="M59.23,215.74l42.18-42.17C66.83,136.49,52.72,92.42,54.53,43c0-.15,0-.3,0-.45.78-20.39,25.54-30,40-15.58Q106.8,39.25,119,51.47c17.13,17.16,34.24,34.35,52,52.14,2.4-2.22,4.49-4.07,6.48-6,9.59-9.42,18.64-19.47,28.83-28.19,30.52-26.11,76.44-11.26,87,27.53a14.61,14.61,0,0,0,6.89,8.16c4.83,2.43,9.75,4.67,14.91,6.92a8.31,8.31,0,0,1,0,15.22c-6.15,2.71-12,5.33-17.86,8.07-2.57,1.21-5.73,3.49-6.45,5.92-15.1,50.58-50.52,81.32-97.75,100.47A192,192,0,0,1,122,255.55c-15.34.14-30.67.17-46.21.16C54.92,255.7,44.49,230.48,59.23,215.74ZM259.85,110.3a12.63,12.63,0,1,0-12.67,12.4A12.75,12.75,0,0,0,259.85,110.3Z"/></svg>